<?xml version="1.0" encoding="UTF-8"?>
<!DOCTYPE svg PUBLIC "-//W3C//DTD SVG 1.1//EN" "http://www.w3.org/Graphics/SVG/1.1/DTD/svg11.dtd">
<!-- Creator: CorelDRAW 2019 (64-Bit) -->
<svg xmlns="http://www.w3.org/2000/svg" xml:space="preserve" width="1in" height="0.35in" version="1.1" style="shape-rendering:geometricPrecision; text-rendering:geometricPrecision; image-rendering:optimizeQuality; fill-rule:evenodd; clip-rule:evenodd"
viewBox="0 0 776.79 330.51"
 xmlns:xlink="http://www.w3.org/1999/xlink"
 xmlns:xodm="http://www.corel.com/coreldraw/odm/2003">
 <defs>
  <style type="text/css">
   <![CDATA[
    .fil2 {fill:url(#id0)}
    .fil1 {fill:url(#id1);fill-rule:nonzero}
    .fil0 {fill:url(#id2);fill-rule:nonzero}
   ]]>
  </style>
  <linearGradient id="id0" gradientUnits="userSpaceOnUse" x1="220.2" y1="89.89" x2="33.57" y2="217.9">
   <stop offset="0" style="stop-opacity:1; stop-color:#00AFEF"/>
   <stop offset="1" style="stop-opacity:1; stop-color:#353B79"/>
  </linearGradient>
  <linearGradient id="id1" gradientUnits="objectBoundingBox" xlink:href="#id0" x1="42.2194%" y1="12.3267%" x2="38.9432%" y2="84.2635%">
  </linearGradient>
  <linearGradient id="id2" gradientUnits="objectBoundingBox" xlink:href="#id0" x1="42.6193%" y1="14.1978%" x2="35.5535%" y2="100.583%">
  </linearGradient>
 </defs>
 <g id="Layer_x0020_1">
  <metadata id="CorelCorpID_0Corel-Layer"/>
  <g id="_2059208066736">
   <g>
    <path class="fil0" d="M371.83 137.34c0,9.23 -3.38,16.16 -10.15,20.78 -6.77,4.62 -15.5,6.93 -26.2,6.93l-36.76 0 0 -93.26 34.43 0c10.33,0 18.67,2.17 25.03,6.51 6.36,4.34 9.53,11 9.53,19.95 0,5.67 -3.11,11.25 -9.33,16.73 4.11,2.56 7.38,5.72 9.81,9.46 2.42,3.75 3.63,8.05 3.63,12.89zm-26.47 -38.27c0,-6.67 -4.66,-10.01 -13.99,-10.01l-11.25 0 0 19.34 9.33 0c4.66,0 8.48,-0.78 11.45,-2.33 2.97,-1.56 4.46,-3.89 4.46,-7zm4.25 38.13c0,-3.66 -1.26,-6.51 -3.77,-8.57 -2.51,-2.06 -5.92,-3.09 -10.22,-3.09l-15.5 0 0 22.36 14.95 0c4.39,0 7.91,-0.94 10.56,-2.81 2.65,-1.88 3.98,-4.51 3.98,-7.89z"/>
    <path id="1" class="fil0" d="M406.4 114.84c-2.65,0 -5.67,0.41 -9.05,1.23 -3.39,0.82 -6.36,1.83 -8.92,3.02l-5.76 -16.46c3.02,-1.64 7.18,-3.09 12.48,-4.32 5.3,-1.23 10.06,-1.85 14.26,-1.85 5.58,0 10.51,1.1 14.81,3.29 4.3,2.19 7.61,5.28 9.95,9.26 2.33,3.98 3.5,8.53 3.5,13.65l0 42.38 -11.93 0 -5.07 -7c-4.94,5.67 -10.38,8.5 -16.32,8.5 -8.05,0 -14.12,-1.99 -18.24,-5.97 -4.11,-3.98 -6.17,-9.4 -6.17,-16.25 0,-6.76 2.29,-11.84 6.86,-15.22 4.57,-3.38 10.83,-5.07 18.79,-5.07l10.42 0c-0.18,-2.93 -1.12,-5.19 -2.81,-6.79 -1.69,-1.6 -3.96,-2.4 -6.79,-2.4zm-0.69 22.08c-2.29,0 -4.14,0.69 -5.55,2.06 -1.42,1.37 -2.13,3.11 -2.13,5.21 0,1.64 0.59,3.06 1.78,4.25 1.19,1.19 2.74,1.78 4.66,1.78 4.02,0 7.91,-1.74 11.66,-5.21l0 -8.09 -10.42 0z"/>
    <path id="2" class="fil0" d="M519.14 131.17c0,11.06 -3.09,19.73 -9.26,25.99 -6.17,6.26 -14.61,9.39 -25.31,9.39 -5.76,0 -11.43,-1.97 -17.01,-5.9l-3.84 4.39 -10.97 0 0 -95.32 21.4 -1.51 0 30.59c3.56,-1.56 7.31,-2.33 11.25,-2.33 10.33,0 18.54,3.02 24.62,9.05 6.08,6.03 9.12,14.58 9.12,25.65zm-22.08 0.14c0,-5.49 -1.23,-9.78 -3.7,-12.89 -2.47,-3.11 -5.9,-4.66 -10.29,-4.66 -2.83,0 -5.8,1.05 -8.91,3.16l0 29.62c3.2,1.92 6.35,2.88 9.46,2.88 4.02,0 7.27,-1.67 9.74,-5.01 2.47,-3.34 3.7,-7.7 3.7,-13.1z"/>
    <path id="3" class="fil0" d="M551.37 166.55c-3.66,0 -8.09,-0.6 -13.3,-1.78 -5.21,-1.19 -9.37,-3.02 -12.48,-5.49l6.31 -13.99c2.83,1.37 5.97,2.49 9.39,3.36 3.43,0.87 6.33,1.3 8.71,1.3 2.2,0 4.14,-0.39 5.83,-1.16 1.69,-0.78 2.54,-1.85 2.54,-3.22 0,-1.19 -0.8,-2.33 -2.4,-3.43 -1.6,-1.1 -3.82,-2.1 -6.65,-3.02 -6.67,-2.28 -12.16,-5.12 -16.46,-8.5 -4.3,-3.38 -6.45,-7.68 -6.45,-12.89 0,-6.58 2.47,-11.77 7.41,-15.57 4.94,-3.8 11.7,-5.69 20.3,-5.69 3.47,0 7.52,0.57 12.14,1.72 4.62,1.14 8.53,2.9 11.73,5.28l-6.17 13.99c-6.4,-2.83 -12.07,-4.25 -17.01,-4.25 -2.1,0 -3.84,0.41 -5.21,1.23 -1.37,0.82 -2.06,1.87 -2.06,3.15 0,1.46 2.88,3.2 8.64,5.21 15.27,5.3 22.9,12.71 22.9,22.22 0,6.86 -2.35,12.16 -7.06,15.91 -4.71,3.75 -11.59,5.62 -20.64,5.62z"/>
    <path id="4" class="fil0" d="M621.73 166.55c-7.22,0 -13.58,-1.35 -19.07,-4.05 -5.49,-2.7 -9.76,-6.67 -12.82,-11.93 -3.06,-5.26 -4.59,-11.59 -4.59,-18.99 0,-7.13 1.58,-13.35 4.73,-18.65 3.15,-5.3 7.5,-9.37 13.03,-12.21 5.53,-2.83 11.86,-4.25 18.99,-4.25 7.22,0 13.6,1.39 19.13,4.18 5.53,2.79 9.83,6.84 12.89,12.14 3.06,5.3 4.59,11.66 4.59,19.07 0,7.13 -1.58,13.3 -4.73,18.52 -3.15,5.21 -7.52,9.21 -13.1,12 -5.58,2.79 -11.93,4.18 -19.06,4.18zm14.67 -34.7c0,-5.12 -1.3,-9.33 -3.91,-12.62 -2.6,-3.29 -6.06,-4.94 -10.35,-4.94 -4.48,0 -8.05,1.58 -10.7,4.73 -2.65,3.16 -3.98,7.34 -3.98,12.55 0,5.21 1.3,9.39 3.91,12.55 2.61,3.16 6.1,4.73 10.49,4.73 4.39,0 7.91,-1.56 10.56,-4.66 2.65,-3.11 3.98,-7.22 3.98,-12.34z"/>
    <path id="5" class="fil0" d="M673.84 116.76l-10.7 0 0 -16.73 10.7 0 0 -5.62c0,-8.05 2.68,-14.36 8.02,-18.93 5.35,-4.57 12.18,-6.86 20.51,-6.86 2.65,0 5.55,0.52 8.71,1.58 3.15,1.05 5.55,2.26 7.2,3.63l-6.17 14.95c-2.83,-1.46 -5.67,-2.19 -8.5,-2.19 -2.65,0 -4.71,0.94 -6.17,2.81 -1.46,1.87 -2.19,4.41 -2.19,7.61l0 3.02 15.5 0 3.98 16.73 -19.47 0 0 79.82 -21.4 0 0 -79.82z"/>
    <path id="6" class="fil0" d="M750.65 100.03l14.81 0 3.84 16.73 -18.65 0 0 22.22c0,3.11 0.77,5.62 2.33,7.54 1.56,1.92 3.7,2.88 6.45,2.88 2.83,0 5.67,-0.73 8.5,-2.19l6.17 14.95c-1.55,1.28 -3.93,2.42 -7.13,3.43 -3.2,1.01 -6.17,1.51 -8.92,1.51 -8.41,0 -15.31,-2.19 -20.71,-6.59 -5.4,-4.39 -8.09,-10.61 -8.09,-18.65l0 -25.1 -9.6 0 0 -16.73 9.6 0 0 -16.87 21.4 -3.29 0 20.16z"/>
    <path class="fil1" d="M318.25 261.84c-3.6,0 -7.87,-0.65 -12.8,-1.95 -4.94,-1.3 -8.78,-2.79 -11.54,-4.48l5.17 -14.01c2.45,1.3 5.49,2.51 9.13,3.62 3.64,1.11 6.87,1.66 9.7,1.66 3.83,0 6.77,-0.67 8.84,-2.01 2.07,-1.34 3.1,-3.12 3.1,-5.34 0,-1.45 -0.78,-2.8 -2.35,-4.02 -1.57,-1.22 -4.11,-2.87 -7.63,-4.94 -0.77,-0.38 -1.91,-1.03 -3.44,-1.95 -5.2,-3.14 -9.28,-5.74 -12.23,-7.81 -2.95,-2.07 -5.55,-4.67 -7.81,-7.81 -2.26,-3.14 -3.39,-6.66 -3.39,-10.56 0.08,-4.13 1.25,-7.83 3.5,-11.08 2.26,-3.25 5.49,-5.82 9.7,-7.69 4.21,-1.87 9.15,-2.81 14.81,-2.81 3.83,0 7.77,0.55 11.82,1.66 4.06,1.11 7.62,2.58 10.68,4.42l-5.51 13.09c-3.67,-1.53 -6.7,-2.6 -9.07,-3.21 -2.37,-0.61 -4.94,-0.92 -7.69,-0.92 -2.83,0 -5.15,0.59 -6.95,1.78 -1.8,1.19 -2.7,2.81 -2.7,4.88 0,1.69 0.74,3.16 2.24,4.42 1.49,1.26 3.89,2.77 7.18,4.54 1.23,0.54 2.49,1.22 3.79,2.07 5.51,3.21 9.72,5.83 12.63,7.86 2.91,2.03 5.47,4.59 7.69,7.69 2.22,3.1 3.33,6.64 3.33,10.62 0,4.29 -1.2,8.11 -3.62,11.48 -2.41,3.37 -5.89,6.01 -10.45,7.92 -4.55,1.91 -9.93,2.87 -16.13,2.87z"/>
    <path id="1" class="fil1" d="M384.04 261.6c-6.05,0 -11.37,-1.13 -15.96,-3.39 -4.59,-2.26 -8.17,-5.59 -10.74,-9.99 -2.56,-4.4 -3.84,-9.7 -3.84,-15.9 0,-5.97 1.32,-11.17 3.96,-15.61 2.64,-4.44 6.28,-7.84 10.91,-10.22 4.63,-2.37 9.93,-3.56 15.9,-3.56 6.05,0 11.39,1.17 16.02,3.5 4.63,2.34 8.23,5.72 10.79,10.16 2.56,4.44 3.84,9.76 3.84,15.96 0,5.97 -1.32,11.13 -3.96,15.5 -2.64,4.36 -6.3,7.71 -10.97,10.05 -4.67,2.33 -9.99,3.5 -15.96,3.5zm12.28 -29.04c0,-4.29 -1.09,-7.81 -3.27,-10.56 -2.18,-2.76 -5.07,-4.13 -8.67,-4.13 -3.75,0 -6.73,1.32 -8.95,3.96 -2.22,2.64 -3.33,6.14 -3.33,10.5 0,4.36 1.09,7.87 3.27,10.51 2.18,2.64 5.11,3.96 8.78,3.96 3.67,0 6.62,-1.3 8.84,-3.9 2.22,-2.6 3.33,-6.05 3.33,-10.33z"/>
    <polygon id="2" class="fil1" points="442.47,179.29 442.47,260.34 424.56,260.34 424.56,180.55 "/>
    <path id="3" class="fil1" d="M480.24 247.6c3.44,0 7.77,-1.64 12.97,-4.94l0 -37.89 18.03 0 0 55.68 -9.99 0 -4.25 -5.85c-3.44,2.22 -7.1,4.06 -10.97,5.51 -3.86,1.45 -7.56,2.18 -11.08,2.18 -6.97,0 -12,-1.99 -15.1,-5.97 -3.1,-3.98 -4.65,-9.37 -4.65,-16.19l0 -35.36 18.02 0 0 33.98c0,2.75 0.57,4.92 1.72,6.48 1.15,1.57 2.91,2.35 5.28,2.35z"/>
    <path id="4" class="fil1" d="M544.3 205.92l12.4 0 3.22 14.01 -15.61 0 0 18.6c0,2.6 0.65,4.71 1.95,6.32 1.3,1.61 3.1,2.41 5.4,2.41 2.37,0 4.74,-0.61 7.12,-1.84l5.17 12.51c-1.3,1.07 -3.29,2.03 -5.97,2.87 -2.68,0.84 -5.17,1.26 -7.46,1.26 -7.04,0 -12.82,-1.84 -17.34,-5.51 -4.52,-3.68 -6.77,-8.88 -6.77,-15.61l0 -21.01 -8.04 0 0 -14.01 8.04 0 0 -14.12 17.91 -2.76 0 16.88z"/>
    <path id="5" class="fil1" d="M590.23 187.09c0,2.68 -0.98,4.99 -2.93,6.95 -1.95,1.95 -4.3,2.93 -7.06,2.93 -2.68,0 -4.99,-0.98 -6.94,-2.93 -1.95,-1.95 -2.93,-4.27 -2.93,-6.95 0,-2.75 0.98,-5.11 2.93,-7.06 1.95,-1.95 4.27,-2.93 6.94,-2.93 2.76,0 5.11,0.98 7.06,2.93 1.95,1.95 2.93,4.3 2.93,7.06zm-0.92 17.57l0 55.68 -18.02 0 0 -55.68 18.02 0z"/>
    <path id="6" class="fil1" d="M628.34 261.6c-6.05,0 -11.37,-1.13 -15.96,-3.39 -4.59,-2.26 -8.17,-5.59 -10.74,-9.99 -2.56,-4.4 -3.84,-9.7 -3.84,-15.9 0,-5.97 1.32,-11.17 3.96,-15.61 2.64,-4.44 6.28,-7.84 10.91,-10.22 4.63,-2.37 9.93,-3.56 15.9,-3.56 6.05,0 11.39,1.17 16.02,3.5 4.63,2.34 8.23,5.72 10.79,10.16 2.56,4.44 3.84,9.76 3.84,15.96 0,5.97 -1.32,11.13 -3.96,15.5 -2.64,4.36 -6.3,7.71 -10.97,10.05 -4.67,2.33 -9.99,3.5 -15.96,3.5zm12.28 -29.04c0,-4.29 -1.09,-7.81 -3.27,-10.56 -2.18,-2.76 -5.07,-4.13 -8.67,-4.13 -3.75,0 -6.73,1.32 -8.95,3.96 -2.22,2.64 -3.33,6.14 -3.33,10.5 0,4.36 1.09,7.87 3.27,10.51 2.18,2.64 5.11,3.96 8.78,3.96 3.67,0 6.62,-1.3 8.84,-3.9 2.22,-2.6 3.33,-6.05 3.33,-10.33z"/>
    <path id="7" class="fil1" d="M698.83 217.52c-3.22,0 -7.58,1.61 -13.09,4.82l0 38 -18.02 0 0 -55.68 11.14 0 3.1 5.85c3.37,-2.29 7.02,-4.15 10.96,-5.57 3.94,-1.41 7.67,-2.12 11.19,-2.12 6.89,0 11.88,1.97 14.98,5.91 3.1,3.94 4.65,9.32 4.65,16.13l0 35.48 -18.03 0 0 -34.1c0,-2.68 -0.57,-4.8 -1.72,-6.37 -1.15,-1.57 -2.87,-2.35 -5.17,-2.35z"/>
    <path id="8" class="fil1" d="M753.6 261.6c-3.06,0 -6.78,-0.49 -11.14,-1.49 -4.36,-1 -7.84,-2.53 -10.45,-4.59l5.28 -11.71c2.37,1.15 4.99,2.09 7.86,2.81 2.87,0.73 5.3,1.09 7.29,1.09 1.84,0 3.46,-0.32 4.88,-0.98 1.42,-0.65 2.12,-1.55 2.12,-2.7 0,-1 -0.67,-1.95 -2.01,-2.87 -1.34,-0.92 -3.19,-1.76 -5.57,-2.53 -5.59,-1.91 -10.18,-4.29 -13.78,-7.12 -3.6,-2.83 -5.39,-6.43 -5.39,-10.79 0,-5.51 2.07,-9.85 6.2,-13.03 4.13,-3.18 9.8,-4.77 16.99,-4.77 2.91,0 6.3,0.48 10.16,1.44 3.87,0.96 7.14,2.43 9.82,4.42l-5.17 11.71c-5.36,-2.37 -10.1,-3.56 -14.24,-3.56 -1.76,0 -3.21,0.35 -4.36,1.03 -1.15,0.69 -1.72,1.57 -1.72,2.64 0,1.23 2.41,2.68 7.24,4.36 12.78,4.44 19.17,10.64 19.17,18.6 0,5.74 -1.97,10.18 -5.91,13.32 -3.94,3.14 -9.7,4.71 -17.28,4.71z"/>
   </g>
   <path class="fil2" d="M210.45 311.99c31.81,-22.4 57.9,-73.54 33.43,-125.06 -9.69,-20.41 -23.62,-35.32 -42.27,-45.88 -44.59,-25.24 -96.26,-4.57 -115.5,-17.66 -7.62,-5.18 -14.2,-18.76 -7.97,-31.93 8.58,-18.15 34.39,-18.65 44.02,-4.07 5.55,8.4 4.3,17.44 5.6,13.59 0.08,-0.25 0.33,0.88 0.58,1.29 31.66,-0.02 38.26,-1.11 73.56,9.34 5.42,-50.01 -25.92,-84.9 -55.98,-99.89 -30.82,-15.37 -106.55,-11.71 -145.91,-10.24l0.44 202.3c49.84,1.76 102.97,-2.47 152.18,0.18 24.31,1.31 33.2,28.81 16.41,44.12 -7.03,6.41 -19.37,9.45 -29.72,3.74 -7.05,-3.89 -9.61,-9.35 -11.84,-15.69l-2.59 -6.6c-24.79,0.01 -49.55,0.29 -74.35,0.01l0 100.98c29.97,0 59.95,-0.04 89.92,0 29.96,0.05 50.22,-4.58 70.02,-18.52z"/>
  </g>
 </g>
</svg>
