<?xml version="1.0" encoding="utf-8"?>
<!-- Generator: Adobe Illustrator 23.0.0, SVG Export Plug-In . SVG Version: 6.00 Build 0)  -->
<svg width="41" height="41" version="1.1" id="Layer_1" xmlns:xodm="http://www.corel.com/coreldraw/odm/2003"
	 xmlns="http://www.w3.org/2000/svg" xmlns:xlink="http://www.w3.org/1999/xlink" x="0px" y="0px" viewBox="0 0 140.3 98.2"
	 style="enable-background:new 0 0 140.3 98.2;" xml:space="preserve">
<style type="text/css">
	.st0{fill-rule:evenodd;clip-rule:evenodd;fill:#1260CC;}
</style>
<g id="Layer_x0020_1">
	<g id="_2840952779232">
		<polygon class="st0" points="77.2,98.2 77.2,70.2 98.2,70.2 70.2,35.1 42.1,70.2 63.1,70.2 63.1,98.2 		"/>
		<path class="st0" d="M35.1,98.2h14v-14h-14c-11.6,0-21-9.4-21-21c0-9.9,8.4-19.3,18.8-21.2l4.1-0.7l1.3-3.9
			C43.1,23,55.4,14,70.2,14c19.3,0,35.1,15.7,35.1,35.1v7h7c7.7,0,14,6.3,14,14s-6.3,14-14,14h-21v14h21c15.5,0,28.1-12.6,28.1-28.1
			c0-6.3-2.1-12.4-6-17.3c-3.9-4.9-9.3-8.4-15.4-9.9C115.8,18.7,95.1,0,70.2,0C50.8,0,34,11.3,26.4,29.1C11.3,33.6,0,47.9,0,63.1
			C0,82.5,15.7,98.2,35.1,98.2L35.1,98.2z"/>
	</g>
</g>
</svg>
