<?xml version="1.0" encoding="UTF-8"?>
<!DOCTYPE svg PUBLIC "-//W3C//DTD SVG 1.1//EN" "http://www.w3.org/Graphics/SVG/1.1/DTD/svg11.dtd">
<!-- Creator: CorelDRAW 2019 (64-Bit) -->
<svg xmlns="http://www.w3.org/2000/svg" xml:space="preserve" width="0.561362in" height="0.731803in" version="1.1" style="shape-rendering:geometricPrecision; text-rendering:geometricPrecision; image-rendering:optimizeQuality; fill-rule:evenodd; clip-rule:evenodd"
viewBox="0 0 772.68 1007.29"
 xmlns:xlink="http://www.w3.org/1999/xlink"
 xmlns:xodm="http://www.corel.com/coreldraw/odm/2003">
 <defs>
  <style type="text/css">
   <![CDATA[
    .fil0 {fill:url(#id0)}
   ]]>
  </style>
  <linearGradient id="id0" gradientUnits="userSpaceOnUse" x1="671.09" y1="273.95" x2="102.32" y2="664.1">
   <stop offset="0" style="stop-opacity:1; stop-color:#00AFEF"/>
   <stop offset="1" style="stop-opacity:1; stop-color:#353B79"/>
  </linearGradient>
 </defs>
 <g id="Layer_x0020_1">
  <metadata id="CorelCorpID_0Corel-Layer"/>
  <path class="fil0" d="M641.38 950.84c96.96,-68.26 176.46,-224.13 101.89,-381.15 -29.54,-62.21 -71.98,-107.65 -128.83,-139.83 -135.89,-76.92 -293.37,-13.94 -352.01,-53.84 -23.22,-15.8 -43.29,-57.17 -24.29,-97.31 26.16,-55.31 104.82,-56.84 134.15,-12.42 16.91,25.62 13.11,53.15 17.06,41.41 0.26,-0.77 1.02,2.69 1.77,3.93 96.47,-0.07 116.61,-3.4 224.18,28.46 16.51,-152.41 -78.99,-258.76 -170.59,-304.42 -93.95,-46.84 -324.75,-35.7 -444.69,-31.21l1.32 616.56c151.89,5.36 313.84,-7.54 463.79,0.55 74.09,4 101.16,87.81 50.01,134.47 -21.41,19.53 -59.02,28.79 -90.57,11.38 -21.49,-11.86 -29.3,-28.49 -36.09,-47.82l-7.9 -20.12c-75.54,0.03 -151.02,0.9 -226.61,0.03l0 307.76c91.34,0 182.7,-0.13 274.04,0.01 91.3,0.14 153.04,-13.95 213.39,-56.44z"/>
 </g>
</svg>
